<mxfile host="app.diagrams.net" agent="Mozilla/5.0 (Macintosh; Intel Mac OS X 10_15_7) AppleWebKit/537.36 (KHTML, like Gecko) Chrome/133.0.0.0 Safari/537.36 OPR/118.0.0.0" version="26.2.14">
  <diagram name="Page-1" id="Bn2f4_8WebnBMHvuVNAl">
    <mxGraphModel dx="4783" dy="3750" grid="1" gridSize="10" guides="1" tooltips="1" connect="1" arrows="1" fold="1" page="1" pageScale="1" pageWidth="850" pageHeight="1100" math="0" shadow="0">
      <root>
        <mxCell id="0" />
        <mxCell id="1" parent="0" />
        <mxCell id="mi6dfQoFwBmpPyF7Z1ts-6" style="edgeStyle=orthogonalEdgeStyle;rounded=0;orthogonalLoop=1;jettySize=auto;html=1;" edge="1" parent="1" source="fPYPMNEVIKLgvC5DWrea-23" target="iIMbkNhyBwI1xsPDOUZN-13">
          <mxGeometry relative="1" as="geometry" />
        </mxCell>
        <mxCell id="mi6dfQoFwBmpPyF7Z1ts-43" style="edgeStyle=orthogonalEdgeStyle;rounded=0;orthogonalLoop=1;jettySize=auto;html=1;" edge="1" parent="1" source="iIMbkNhyBwI1xsPDOUZN-13" target="fPYPMNEVIKLgvC5DWrea-22">
          <mxGeometry relative="1" as="geometry" />
        </mxCell>
        <mxCell id="iIMbkNhyBwI1xsPDOUZN-13" value="" style="whiteSpace=wrap;html=1;aspect=fixed;" parent="1" vertex="1">
          <mxGeometry x="440" width="530" height="530" as="geometry" />
        </mxCell>
        <mxCell id="iIMbkNhyBwI1xsPDOUZN-41" value="" style="points=[];aspect=fixed;html=1;align=center;shadow=0;dashed=0;fillColor=#FF6A00;strokeColor=none;shape=mxgraph.alibaba_cloud.kafka;" parent="1" vertex="1">
          <mxGeometry x="509.25" y="110" width="391.5" height="290" as="geometry" />
        </mxCell>
        <mxCell id="mi6dfQoFwBmpPyF7Z1ts-4" style="edgeStyle=orthogonalEdgeStyle;rounded=0;orthogonalLoop=1;jettySize=auto;html=1;" edge="1" parent="1" source="fPYPMNEVIKLgvC5DWrea-16" target="iIMbkNhyBwI1xsPDOUZN-13">
          <mxGeometry relative="1" as="geometry" />
        </mxCell>
        <mxCell id="mi6dfQoFwBmpPyF7Z1ts-7" value="" style="group" vertex="1" connectable="0" parent="1">
          <mxGeometry x="-670" width="638.6" height="638.6" as="geometry" />
        </mxCell>
        <mxCell id="fPYPMNEVIKLgvC5DWrea-23" value="" style="whiteSpace=wrap;html=1;aspect=fixed;" parent="mi6dfQoFwBmpPyF7Z1ts-7" vertex="1">
          <mxGeometry width="638.6" height="638.6" as="geometry" />
        </mxCell>
        <mxCell id="iIMbkNhyBwI1xsPDOUZN-2" value="" style="whiteSpace=wrap;html=1;aspect=fixed;" parent="mi6dfQoFwBmpPyF7Z1ts-7" vertex="1">
          <mxGeometry x="50" y="18.4" width="260" height="260" as="geometry" />
        </mxCell>
        <mxCell id="iIMbkNhyBwI1xsPDOUZN-1" value="" style="image;html=1;image=img/lib/clip_art/computers/Server_Rack_128x128.png" parent="mi6dfQoFwBmpPyF7Z1ts-7" vertex="1">
          <mxGeometry x="70" y="58.4" width="80" height="80" as="geometry" />
        </mxCell>
        <mxCell id="iIMbkNhyBwI1xsPDOUZN-6" value="" style="points=[];aspect=fixed;html=1;align=center;shadow=0;dashed=0;fillColor=#FF6A00;strokeColor=none;shape=mxgraph.alibaba_cloud.ahas_application_high_availability_service;" parent="mi6dfQoFwBmpPyF7Z1ts-7" vertex="1">
          <mxGeometry x="200" y="65.3" width="66.5" height="76.8" as="geometry" />
        </mxCell>
        <mxCell id="iIMbkNhyBwI1xsPDOUZN-8" style="edgeStyle=orthogonalEdgeStyle;rounded=0;orthogonalLoop=1;jettySize=auto;html=1;exitX=1;exitY=0.5;exitDx=0;exitDy=0;entryX=0.015;entryY=0.418;entryDx=0;entryDy=0;entryPerimeter=0;" parent="mi6dfQoFwBmpPyF7Z1ts-7" source="iIMbkNhyBwI1xsPDOUZN-1" target="iIMbkNhyBwI1xsPDOUZN-6" edge="1">
          <mxGeometry relative="1" as="geometry" />
        </mxCell>
        <mxCell id="iIMbkNhyBwI1xsPDOUZN-9" value="Remote Service" style="html=1;shadow=0;dashed=0;shape=mxgraph.bootstrap.checkbox2;labelPosition=right;verticalLabelPosition=middle;align=left;verticalAlign=middle;gradientColor=#DEDEDE;fillColor=#EDEDED;checked=0;spacing=5;checkedFill=#0085FC;checkedStroke=#ffffff;sketch=0;" parent="mi6dfQoFwBmpPyF7Z1ts-7" vertex="1">
          <mxGeometry x="200" y="158.4" width="10" height="10" as="geometry" />
        </mxCell>
        <mxCell id="iIMbkNhyBwI1xsPDOUZN-11" value="SSL" style="html=1;shadow=0;dashed=0;shape=mxgraph.bootstrap.checkbox2;labelPosition=right;verticalLabelPosition=middle;align=left;verticalAlign=middle;gradientColor=#DEDEDE;fillColor=#EDEDED;checked=0;spacing=5;checkedFill=#0085FC;checkedStroke=#ffffff;sketch=0;" parent="mi6dfQoFwBmpPyF7Z1ts-7" vertex="1">
          <mxGeometry x="200" y="178.4" width="10" height="10" as="geometry" />
        </mxCell>
        <mxCell id="iIMbkNhyBwI1xsPDOUZN-12" value="" style="points=[];aspect=fixed;html=1;align=center;shadow=0;dashed=0;fillColor=#FF6A00;strokeColor=none;shape=mxgraph.alibaba_cloud.ahas_application_high_availability_service;" parent="mi6dfQoFwBmpPyF7Z1ts-7" vertex="1">
          <mxGeometry x="510" y="214.6" width="66.5" height="76.8" as="geometry" />
        </mxCell>
        <mxCell id="iIMbkNhyBwI1xsPDOUZN-15" value="fix-monitor service" style="html=1;shadow=0;dashed=0;shape=mxgraph.bootstrap.checkbox2;labelPosition=right;verticalLabelPosition=middle;align=left;verticalAlign=middle;gradientColor=#DEDEDE;fillColor=#EDEDED;checked=0;spacing=5;checkedFill=#0085FC;checkedStroke=#ffffff;sketch=0;" parent="mi6dfQoFwBmpPyF7Z1ts-7" vertex="1">
          <mxGeometry x="500" y="318.6" width="10" height="10" as="geometry" />
        </mxCell>
        <mxCell id="iIMbkNhyBwI1xsPDOUZN-18" value="" style="whiteSpace=wrap;html=1;aspect=fixed;" parent="mi6dfQoFwBmpPyF7Z1ts-7" vertex="1">
          <mxGeometry x="50" y="338.40000000000003" width="260" height="260" as="geometry" />
        </mxCell>
        <mxCell id="iIMbkNhyBwI1xsPDOUZN-19" value="" style="image;html=1;image=img/lib/clip_art/computers/Server_Rack_128x128.png" parent="mi6dfQoFwBmpPyF7Z1ts-7" vertex="1">
          <mxGeometry x="70" y="378.40000000000003" width="80" height="80" as="geometry" />
        </mxCell>
        <mxCell id="iIMbkNhyBwI1xsPDOUZN-20" value="" style="points=[];aspect=fixed;html=1;align=center;shadow=0;dashed=0;fillColor=#FF6A00;strokeColor=none;shape=mxgraph.alibaba_cloud.ahas_application_high_availability_service;" parent="mi6dfQoFwBmpPyF7Z1ts-7" vertex="1">
          <mxGeometry x="200" y="385.3" width="66.5" height="76.8" as="geometry" />
        </mxCell>
        <mxCell id="iIMbkNhyBwI1xsPDOUZN-21" style="edgeStyle=orthogonalEdgeStyle;rounded=0;orthogonalLoop=1;jettySize=auto;html=1;exitX=1;exitY=0.5;exitDx=0;exitDy=0;entryX=0.015;entryY=0.418;entryDx=0;entryDy=0;entryPerimeter=0;" parent="mi6dfQoFwBmpPyF7Z1ts-7" source="iIMbkNhyBwI1xsPDOUZN-19" target="iIMbkNhyBwI1xsPDOUZN-20" edge="1">
          <mxGeometry relative="1" as="geometry" />
        </mxCell>
        <mxCell id="iIMbkNhyBwI1xsPDOUZN-22" value="Remote Service" style="html=1;shadow=0;dashed=0;shape=mxgraph.bootstrap.checkbox2;labelPosition=right;verticalLabelPosition=middle;align=left;verticalAlign=middle;gradientColor=#DEDEDE;fillColor=#EDEDED;checked=0;spacing=5;checkedFill=#0085FC;checkedStroke=#ffffff;sketch=0;" parent="mi6dfQoFwBmpPyF7Z1ts-7" vertex="1">
          <mxGeometry x="200" y="478.40000000000003" width="10" height="10" as="geometry" />
        </mxCell>
        <mxCell id="iIMbkNhyBwI1xsPDOUZN-23" value="SSL" style="html=1;shadow=0;dashed=0;shape=mxgraph.bootstrap.checkbox2;labelPosition=right;verticalLabelPosition=middle;align=left;verticalAlign=middle;gradientColor=#DEDEDE;fillColor=#EDEDED;checked=0;spacing=5;checkedFill=#0085FC;checkedStroke=#ffffff;sketch=0;" parent="mi6dfQoFwBmpPyF7Z1ts-7" vertex="1">
          <mxGeometry x="200" y="498.40000000000003" width="10" height="10" as="geometry" />
        </mxCell>
        <mxCell id="iIMbkNhyBwI1xsPDOUZN-24" value="SSL" style="html=1;shadow=0;dashed=0;shape=mxgraph.bootstrap.checkbox2;labelPosition=right;verticalLabelPosition=middle;align=left;verticalAlign=middle;gradientColor=#DEDEDE;fillColor=#EDEDED;checked=0;spacing=5;checkedFill=#0085FC;checkedStroke=#ffffff;sketch=0;" parent="mi6dfQoFwBmpPyF7Z1ts-7" vertex="1">
          <mxGeometry x="500" y="335.6" width="10" height="10" as="geometry" />
        </mxCell>
        <mxCell id="iIMbkNhyBwI1xsPDOUZN-25" style="edgeStyle=orthogonalEdgeStyle;rounded=0;orthogonalLoop=1;jettySize=auto;html=1;entryX=0.105;entryY=0.521;entryDx=0;entryDy=0;entryPerimeter=0;" parent="mi6dfQoFwBmpPyF7Z1ts-7" source="iIMbkNhyBwI1xsPDOUZN-20" target="iIMbkNhyBwI1xsPDOUZN-12" edge="1">
          <mxGeometry relative="1" as="geometry">
            <Array as="points">
              <mxPoint x="233" y="378.6" />
              <mxPoint x="430" y="378.6" />
              <mxPoint x="430" y="238.6" />
              <mxPoint x="517" y="238.6" />
            </Array>
          </mxGeometry>
        </mxCell>
        <mxCell id="iIMbkNhyBwI1xsPDOUZN-26" value="C++" style="html=1;shadow=0;dashed=0;shape=mxgraph.bootstrap.checkbox2;labelPosition=right;verticalLabelPosition=middle;align=left;verticalAlign=middle;gradientColor=#DEDEDE;fillColor=#EDEDED;checked=0;spacing=5;checkedFill=#0085FC;checkedStroke=#ffffff;sketch=0;" parent="mi6dfQoFwBmpPyF7Z1ts-7" vertex="1">
          <mxGeometry x="200" y="198.4" width="10" height="10" as="geometry" />
        </mxCell>
        <mxCell id="iIMbkNhyBwI1xsPDOUZN-27" value="C++" style="html=1;shadow=0;dashed=0;shape=mxgraph.bootstrap.checkbox2;labelPosition=right;verticalLabelPosition=middle;align=left;verticalAlign=middle;gradientColor=#DEDEDE;fillColor=#EDEDED;checked=0;spacing=5;checkedFill=#0085FC;checkedStroke=#ffffff;sketch=0;" parent="mi6dfQoFwBmpPyF7Z1ts-7" vertex="1">
          <mxGeometry x="200" y="518.4" width="10" height="10" as="geometry" />
        </mxCell>
        <mxCell id="iIMbkNhyBwI1xsPDOUZN-28" value="C++" style="html=1;shadow=0;dashed=0;shape=mxgraph.bootstrap.checkbox2;labelPosition=right;verticalLabelPosition=middle;align=left;verticalAlign=middle;gradientColor=#DEDEDE;fillColor=#EDEDED;checked=0;spacing=5;checkedFill=#0085FC;checkedStroke=#ffffff;sketch=0;" parent="mi6dfQoFwBmpPyF7Z1ts-7" vertex="1">
          <mxGeometry x="500" y="358.6" width="10" height="10" as="geometry" />
        </mxCell>
        <mxCell id="iIMbkNhyBwI1xsPDOUZN-29" value="PCAP&amp;nbsp;" style="html=1;shadow=0;dashed=0;shape=mxgraph.bootstrap.checkbox2;labelPosition=right;verticalLabelPosition=middle;align=left;verticalAlign=middle;gradientColor=#DEDEDE;fillColor=#EDEDED;checked=0;spacing=5;checkedFill=#0085FC;checkedStroke=#ffffff;sketch=0;" parent="mi6dfQoFwBmpPyF7Z1ts-7" vertex="1">
          <mxGeometry x="200" y="218.4" width="10" height="10" as="geometry" />
        </mxCell>
        <mxCell id="iIMbkNhyBwI1xsPDOUZN-30" value="PCAP&amp;nbsp;" style="html=1;shadow=0;dashed=0;shape=mxgraph.bootstrap.checkbox2;labelPosition=right;verticalLabelPosition=middle;align=left;verticalAlign=middle;gradientColor=#DEDEDE;fillColor=#EDEDED;checked=0;spacing=5;checkedFill=#0085FC;checkedStroke=#ffffff;sketch=0;" parent="mi6dfQoFwBmpPyF7Z1ts-7" vertex="1">
          <mxGeometry x="200" y="538.4" width="10" height="10" as="geometry" />
        </mxCell>
        <mxCell id="mi6dfQoFwBmpPyF7Z1ts-8" value="" style="group" vertex="1" connectable="0" parent="1">
          <mxGeometry x="-240" y="790" width="548.54" height="550" as="geometry" />
        </mxCell>
        <mxCell id="fPYPMNEVIKLgvC5DWrea-16" value="" style="whiteSpace=wrap;html=1;aspect=fixed;" parent="mi6dfQoFwBmpPyF7Z1ts-8" vertex="1">
          <mxGeometry x="18.539999999999964" width="530" height="530" as="geometry" />
        </mxCell>
        <mxCell id="fPYPMNEVIKLgvC5DWrea-18" value="" style="points=[];aspect=fixed;html=1;align=center;shadow=0;dashed=0;fillColor=#FF6A00;strokeColor=none;shape=mxgraph.alibaba_cloud.ask_ack_container_service_for_kubernetes;" parent="mi6dfQoFwBmpPyF7Z1ts-8" vertex="1">
          <mxGeometry x="90.00000000000006" y="70" width="67.09" height="77" as="geometry" />
        </mxCell>
        <mxCell id="mi6dfQoFwBmpPyF7Z1ts-3" value="" style="edgeStyle=orthogonalEdgeStyle;rounded=0;orthogonalLoop=1;jettySize=auto;html=1;" edge="1" parent="mi6dfQoFwBmpPyF7Z1ts-8" source="fPYPMNEVIKLgvC5DWrea-19" target="mi6dfQoFwBmpPyF7Z1ts-2">
          <mxGeometry relative="1" as="geometry" />
        </mxCell>
        <mxCell id="fPYPMNEVIKLgvC5DWrea-19" value="" style="points=[];aspect=fixed;html=1;align=center;shadow=0;dashed=0;fillColor=#FF6A00;strokeColor=none;shape=mxgraph.alibaba_cloud.ask_ack_container_service_for_kubernetes;" parent="mi6dfQoFwBmpPyF7Z1ts-8" vertex="1">
          <mxGeometry x="356.46000000000004" y="70" width="67.09" height="77" as="geometry" />
        </mxCell>
        <mxCell id="fPYPMNEVIKLgvC5DWrea-24" value="&lt;font style=&quot;font-size: 35px;&quot;&gt;sim-fix&lt;/font&gt;" style="text;html=1;align=center;verticalAlign=middle;whiteSpace=wrap;rounded=0;strokeWidth=6;" parent="mi6dfQoFwBmpPyF7Z1ts-8" vertex="1">
          <mxGeometry x="153.54000000000002" y="480" width="260" height="70" as="geometry" />
        </mxCell>
        <mxCell id="mi6dfQoFwBmpPyF7Z1ts-1" value="&lt;font style=&quot;font-size: 35px;&quot;&gt;fix-client&lt;/font&gt;" style="text;html=1;align=center;verticalAlign=middle;whiteSpace=wrap;rounded=0;strokeWidth=6;" vertex="1" parent="mi6dfQoFwBmpPyF7Z1ts-8">
          <mxGeometry y="170" width="260" height="70" as="geometry" />
        </mxCell>
        <mxCell id="mi6dfQoFwBmpPyF7Z1ts-2" value="&lt;font style=&quot;font-size: 35px;&quot;&gt;fix-server&lt;/font&gt;" style="text;html=1;align=center;verticalAlign=middle;whiteSpace=wrap;rounded=0;strokeWidth=6;" vertex="1" parent="mi6dfQoFwBmpPyF7Z1ts-8">
          <mxGeometry x="260" y="160" width="260" height="70" as="geometry" />
        </mxCell>
        <mxCell id="mi6dfQoFwBmpPyF7Z1ts-9" value="" style="group" vertex="1" connectable="0" parent="1">
          <mxGeometry x="820" y="770" width="548.54" height="550" as="geometry" />
        </mxCell>
        <mxCell id="mi6dfQoFwBmpPyF7Z1ts-10" value="" style="whiteSpace=wrap;html=1;aspect=fixed;" vertex="1" parent="mi6dfQoFwBmpPyF7Z1ts-9">
          <mxGeometry x="18.539999999999964" y="10" width="530" height="530" as="geometry" />
        </mxCell>
        <mxCell id="mi6dfQoFwBmpPyF7Z1ts-11" value="" style="points=[];aspect=fixed;html=1;align=center;shadow=0;dashed=0;fillColor=#FF6A00;strokeColor=none;shape=mxgraph.alibaba_cloud.ask_ack_container_service_for_kubernetes;" vertex="1" parent="mi6dfQoFwBmpPyF7Z1ts-9">
          <mxGeometry x="90.00000000000006" y="70" width="67.09" height="77" as="geometry" />
        </mxCell>
        <mxCell id="mi6dfQoFwBmpPyF7Z1ts-12" value="" style="edgeStyle=orthogonalEdgeStyle;rounded=0;orthogonalLoop=1;jettySize=auto;html=1;" edge="1" parent="mi6dfQoFwBmpPyF7Z1ts-9" source="mi6dfQoFwBmpPyF7Z1ts-13" target="mi6dfQoFwBmpPyF7Z1ts-16">
          <mxGeometry relative="1" as="geometry" />
        </mxCell>
        <mxCell id="mi6dfQoFwBmpPyF7Z1ts-13" value="" style="points=[];aspect=fixed;html=1;align=center;shadow=0;dashed=0;fillColor=#FF6A00;strokeColor=none;shape=mxgraph.alibaba_cloud.ask_ack_container_service_for_kubernetes;" vertex="1" parent="mi6dfQoFwBmpPyF7Z1ts-9">
          <mxGeometry x="356.46000000000004" y="70" width="67.09" height="77" as="geometry" />
        </mxCell>
        <mxCell id="mi6dfQoFwBmpPyF7Z1ts-14" value="&lt;font style=&quot;font-size: 35px;&quot;&gt;ouch-fix&lt;/font&gt;" style="text;html=1;align=center;verticalAlign=middle;whiteSpace=wrap;rounded=0;strokeWidth=6;" vertex="1" parent="mi6dfQoFwBmpPyF7Z1ts-9">
          <mxGeometry x="153.54000000000002" y="480" width="260" height="70" as="geometry" />
        </mxCell>
        <mxCell id="mi6dfQoFwBmpPyF7Z1ts-15" value="&lt;font style=&quot;font-size: 35px;&quot;&gt;ouch-client&lt;/font&gt;" style="text;html=1;align=center;verticalAlign=middle;whiteSpace=wrap;rounded=0;strokeWidth=6;" vertex="1" parent="mi6dfQoFwBmpPyF7Z1ts-9">
          <mxGeometry y="170" width="260" height="70" as="geometry" />
        </mxCell>
        <mxCell id="mi6dfQoFwBmpPyF7Z1ts-16" value="&lt;font style=&quot;font-size: 35px;&quot;&gt;ouch-server&lt;/font&gt;" style="text;html=1;align=center;verticalAlign=middle;whiteSpace=wrap;rounded=0;strokeWidth=6;" vertex="1" parent="mi6dfQoFwBmpPyF7Z1ts-9">
          <mxGeometry x="260" y="160" width="260" height="70" as="geometry" />
        </mxCell>
        <mxCell id="mi6dfQoFwBmpPyF7Z1ts-17" style="edgeStyle=orthogonalEdgeStyle;rounded=0;orthogonalLoop=1;jettySize=auto;html=1;entryX=0.5;entryY=1;entryDx=0;entryDy=0;" edge="1" parent="1" source="mi6dfQoFwBmpPyF7Z1ts-10">
          <mxGeometry relative="1" as="geometry">
            <mxPoint x="665" y="519.9999999999995" as="targetPoint" />
          </mxGeometry>
        </mxCell>
        <mxCell id="mi6dfQoFwBmpPyF7Z1ts-18" value="" style="group" vertex="1" connectable="0" parent="1">
          <mxGeometry x="50" y="-1010" width="750" height="750" as="geometry" />
        </mxCell>
        <mxCell id="fPYPMNEVIKLgvC5DWrea-2" value="" style="whiteSpace=wrap;html=1;aspect=fixed;container=1;" parent="mi6dfQoFwBmpPyF7Z1ts-18" vertex="1">
          <mxGeometry width="750" height="750" as="geometry" />
        </mxCell>
        <mxCell id="mi6dfQoFwBmpPyF7Z1ts-27" value="" style="group" vertex="1" connectable="0" parent="fPYPMNEVIKLgvC5DWrea-2">
          <mxGeometry x="80" y="512.8" width="135.83999999999992" height="145" as="geometry" />
        </mxCell>
        <mxCell id="mi6dfQoFwBmpPyF7Z1ts-28" value="" style="points=[];aspect=fixed;html=1;align=center;shadow=0;dashed=0;fillColor=#FF6A00;strokeColor=none;shape=mxgraph.alibaba_cloud.ask_ack_container_service_for_kubernetes;" vertex="1" parent="mi6dfQoFwBmpPyF7Z1ts-27">
          <mxGeometry x="51.5" width="84.34" height="96.8" as="geometry" />
        </mxCell>
        <mxCell id="mi6dfQoFwBmpPyF7Z1ts-29" value="ts-influxdb-fix" style="html=1;shadow=0;dashed=0;shape=mxgraph.bootstrap.checkbox2;labelPosition=right;verticalLabelPosition=middle;align=left;verticalAlign=middle;gradientColor=#DEDEDE;fillColor=#EDEDED;checked=0;spacing=5;checkedFill=#0085FC;checkedStroke=#ffffff;sketch=0;fontSize=25;" vertex="1" parent="mi6dfQoFwBmpPyF7Z1ts-27">
          <mxGeometry y="120" width="25" height="25" as="geometry" />
        </mxCell>
        <mxCell id="fPYPMNEVIKLgvC5DWrea-1" value="" style="shape=image;verticalLabelPosition=bottom;labelBackgroundColor=default;verticalAlign=top;aspect=fixed;imageAspect=0;image=https://www.niagaramarketplace.com/media/catalog/product/cache/8ec2f9f1aafbe7f04b9376f56dd1d327/m/a/marketplace_icons_13_.png;" parent="mi6dfQoFwBmpPyF7Z1ts-18" vertex="1">
          <mxGeometry x="159" width="350" height="350" as="geometry" />
        </mxCell>
        <mxCell id="fPYPMNEVIKLgvC5DWrea-7" value="" style="shape=image;verticalLabelPosition=bottom;labelBackgroundColor=default;verticalAlign=top;aspect=fixed;imageAspect=0;image=https://upload.wikimedia.org/wikipedia/commons/thumb/c/cd/WebSocket_colored_logo.svg/250px-WebSocket_colored_logo.svg.png;" parent="mi6dfQoFwBmpPyF7Z1ts-18" vertex="1">
          <mxGeometry x="430" y="590" width="115.73" height="115.73" as="geometry" />
        </mxCell>
        <mxCell id="fPYPMNEVIKLgvC5DWrea-11" value="" style="shape=image;verticalLabelPosition=bottom;labelBackgroundColor=default;verticalAlign=top;aspect=fixed;imageAspect=0;image=https://images.seeklogo.com/logo-png/27/2/webhooks-logo-png_seeklogo-274079.png;" parent="mi6dfQoFwBmpPyF7Z1ts-18" vertex="1">
          <mxGeometry x="420" y="446.55" width="131.45" height="131.45" as="geometry" />
        </mxCell>
        <mxCell id="fPYPMNEVIKLgvC5DWrea-13" style="edgeStyle=orthogonalEdgeStyle;rounded=0;orthogonalLoop=1;jettySize=auto;html=1;entryX=0.961;entryY=0.721;entryDx=0;entryDy=0;entryPerimeter=0;" parent="mi6dfQoFwBmpPyF7Z1ts-18" source="fPYPMNEVIKLgvC5DWrea-7" edge="1">
          <mxGeometry relative="1" as="geometry">
            <mxPoint x="296.0752500000003" y="634.6700000000001" as="targetPoint" />
          </mxGeometry>
        </mxCell>
        <mxCell id="mi6dfQoFwBmpPyF7Z1ts-33" style="edgeStyle=orthogonalEdgeStyle;rounded=0;orthogonalLoop=1;jettySize=auto;html=1;" edge="1" parent="mi6dfQoFwBmpPyF7Z1ts-18" source="mi6dfQoFwBmpPyF7Z1ts-28" target="fPYPMNEVIKLgvC5DWrea-1">
          <mxGeometry relative="1" as="geometry" />
        </mxCell>
        <mxCell id="mi6dfQoFwBmpPyF7Z1ts-35" style="edgeStyle=orthogonalEdgeStyle;rounded=0;orthogonalLoop=1;jettySize=auto;html=1;" edge="1" parent="mi6dfQoFwBmpPyF7Z1ts-18" source="mi6dfQoFwBmpPyF7Z1ts-28" target="fPYPMNEVIKLgvC5DWrea-11">
          <mxGeometry relative="1" as="geometry" />
        </mxCell>
        <mxCell id="mi6dfQoFwBmpPyF7Z1ts-19" style="edgeStyle=orthogonalEdgeStyle;rounded=0;orthogonalLoop=1;jettySize=auto;html=1;" edge="1" parent="1" source="fPYPMNEVIKLgvC5DWrea-2" target="iIMbkNhyBwI1xsPDOUZN-13">
          <mxGeometry relative="1" as="geometry" />
        </mxCell>
        <mxCell id="mi6dfQoFwBmpPyF7Z1ts-20" value="" style="group" vertex="1" connectable="0" parent="1">
          <mxGeometry x="1120" y="-940" width="550" height="660" as="geometry" />
        </mxCell>
        <mxCell id="mi6dfQoFwBmpPyF7Z1ts-21" value="" style="group" vertex="1" connectable="0" parent="mi6dfQoFwBmpPyF7Z1ts-20">
          <mxGeometry x="-40" y="104.15" width="550" height="550" as="geometry" />
        </mxCell>
        <mxCell id="iIMbkNhyBwI1xsPDOUZN-68" value="" style="whiteSpace=wrap;html=1;aspect=fixed;" parent="mi6dfQoFwBmpPyF7Z1ts-21" vertex="1">
          <mxGeometry width="550" height="550" as="geometry" />
        </mxCell>
        <mxCell id="iIMbkNhyBwI1xsPDOUZN-67" value="" style="image;aspect=fixed;html=1;points=[];align=center;fontSize=12;image=img/lib/azure2/other/Arc_PostgreSQL.svg;" parent="mi6dfQoFwBmpPyF7Z1ts-21" vertex="1">
          <mxGeometry x="91.89" y="95.85" width="342.92" height="358.3" as="geometry" />
        </mxCell>
        <mxCell id="iIMbkNhyBwI1xsPDOUZN-73" value="dbMarketData" style="html=1;shadow=0;dashed=0;shape=mxgraph.bootstrap.checkbox2;labelPosition=right;verticalLabelPosition=middle;align=left;verticalAlign=middle;gradientColor=#DEDEDE;fillColor=#EDEDED;checked=0;spacing=5;checkedFill=#0085FC;checkedStroke=#ffffff;sketch=0;" parent="mi6dfQoFwBmpPyF7Z1ts-21" vertex="1">
          <mxGeometry x="162.45283018867923" y="443.7745283018868" width="10.377358490566039" height="12.452830188679245" as="geometry" />
        </mxCell>
        <mxCell id="mi6dfQoFwBmpPyF7Z1ts-22" style="edgeStyle=orthogonalEdgeStyle;rounded=0;orthogonalLoop=1;jettySize=auto;html=1;" edge="1" parent="1" source="iIMbkNhyBwI1xsPDOUZN-68" target="fPYPMNEVIKLgvC5DWrea-22">
          <mxGeometry relative="1" as="geometry" />
        </mxCell>
        <mxCell id="mi6dfQoFwBmpPyF7Z1ts-23" style="edgeStyle=orthogonalEdgeStyle;rounded=0;orthogonalLoop=1;jettySize=auto;html=1;" edge="1" parent="1" source="iIMbkNhyBwI1xsPDOUZN-68" target="iIMbkNhyBwI1xsPDOUZN-53">
          <mxGeometry relative="1" as="geometry" />
        </mxCell>
        <mxCell id="mi6dfQoFwBmpPyF7Z1ts-24" value="" style="group" vertex="1" connectable="0" parent="1">
          <mxGeometry x="1980" y="-710" width="530" height="530" as="geometry" />
        </mxCell>
        <mxCell id="iIMbkNhyBwI1xsPDOUZN-53" value="" style="whiteSpace=wrap;html=1;aspect=fixed;" parent="mi6dfQoFwBmpPyF7Z1ts-24" vertex="1">
          <mxGeometry width="530" height="530" as="geometry" />
        </mxCell>
        <mxCell id="iIMbkNhyBwI1xsPDOUZN-50" value="" style="image;aspect=fixed;html=1;points=[];align=center;fontSize=12;image=img/lib/azure2/other/Grafana.svg;" parent="mi6dfQoFwBmpPyF7Z1ts-24" vertex="1">
          <mxGeometry x="30" y="54" width="68" height="52.800000000000004" as="geometry" />
        </mxCell>
        <mxCell id="iIMbkNhyBwI1xsPDOUZN-51" value="grafana" style="html=1;shadow=0;dashed=0;shape=mxgraph.bootstrap.checkbox2;labelPosition=right;verticalLabelPosition=middle;align=left;verticalAlign=middle;gradientColor=#DEDEDE;fillColor=#EDEDED;checked=0;spacing=5;checkedFill=#0085FC;checkedStroke=#ffffff;sketch=0;" parent="mi6dfQoFwBmpPyF7Z1ts-24" vertex="1">
          <mxGeometry x="110" y="75.4" width="10" height="10" as="geometry" />
        </mxCell>
        <mxCell id="iIMbkNhyBwI1xsPDOUZN-71" style="edgeStyle=orthogonalEdgeStyle;rounded=0;orthogonalLoop=1;jettySize=auto;html=1;" parent="mi6dfQoFwBmpPyF7Z1ts-24" source="iIMbkNhyBwI1xsPDOUZN-55" target="iIMbkNhyBwI1xsPDOUZN-50" edge="1">
          <mxGeometry relative="1" as="geometry" />
        </mxCell>
        <mxCell id="iIMbkNhyBwI1xsPDOUZN-55" value="" style="image;aspect=fixed;html=1;points=[];align=center;fontSize=12;image=img/lib/azure2/other/Grafana.svg;" parent="mi6dfQoFwBmpPyF7Z1ts-24" vertex="1">
          <mxGeometry x="30" y="160.00000000000006" width="68" height="52.800000000000004" as="geometry" />
        </mxCell>
        <mxCell id="iIMbkNhyBwI1xsPDOUZN-56" value="grafana-fix-monitoring Plugin" style="html=1;shadow=0;dashed=0;shape=mxgraph.bootstrap.checkbox2;labelPosition=right;verticalLabelPosition=middle;align=left;verticalAlign=middle;gradientColor=#DEDEDE;fillColor=#EDEDED;checked=0;spacing=5;checkedFill=#0085FC;checkedStroke=#ffffff;sketch=0;" parent="mi6dfQoFwBmpPyF7Z1ts-24" vertex="1">
          <mxGeometry x="110" y="190" width="10" height="10" as="geometry" />
        </mxCell>
        <mxCell id="fPYPMNEVIKLgvC5DWrea-15" value="" style="shape=image;verticalLabelPosition=bottom;labelBackgroundColor=default;verticalAlign=top;aspect=fixed;imageAspect=0;image=https://static-00.iconduck.com/assets.00/grafana-color-icon-1841x2048-2epnflu7.png;" parent="mi6dfQoFwBmpPyF7Z1ts-24" vertex="1">
          <mxGeometry x="271" y="205.32" width="229" height="254.68" as="geometry" />
        </mxCell>
        <mxCell id="mi6dfQoFwBmpPyF7Z1ts-42" value="" style="group" vertex="1" connectable="0" parent="1">
          <mxGeometry x="1230" y="-60.000000000000014" width="690" height="690" as="geometry" />
        </mxCell>
        <mxCell id="fPYPMNEVIKLgvC5DWrea-22" value="" style="whiteSpace=wrap;html=1;aspect=fixed;" parent="mi6dfQoFwBmpPyF7Z1ts-42" vertex="1">
          <mxGeometry width="690" height="690" as="geometry" />
        </mxCell>
        <mxCell id="mi6dfQoFwBmpPyF7Z1ts-41" value="" style="group" vertex="1" connectable="0" parent="mi6dfQoFwBmpPyF7Z1ts-42">
          <mxGeometry x="260" y="130" width="135.83999999999992" height="145" as="geometry" />
        </mxCell>
        <mxCell id="iIMbkNhyBwI1xsPDOUZN-33" value="" style="points=[];aspect=fixed;html=1;align=center;shadow=0;dashed=0;fillColor=#FF6A00;strokeColor=none;shape=mxgraph.alibaba_cloud.ask_ack_container_service_for_kubernetes;" parent="mi6dfQoFwBmpPyF7Z1ts-41" vertex="1">
          <mxGeometry x="51.5" width="84.34" height="96.8" as="geometry" />
        </mxCell>
        <mxCell id="iIMbkNhyBwI1xsPDOUZN-34" value="cpp-itch-service" style="html=1;shadow=0;dashed=0;shape=mxgraph.bootstrap.checkbox2;labelPosition=right;verticalLabelPosition=middle;align=left;verticalAlign=middle;gradientColor=#DEDEDE;fillColor=#EDEDED;checked=0;spacing=5;checkedFill=#0085FC;checkedStroke=#ffffff;sketch=0;fontSize=25;" parent="mi6dfQoFwBmpPyF7Z1ts-41" vertex="1">
          <mxGeometry y="120" width="25" height="25" as="geometry" />
        </mxCell>
        <mxCell id="mi6dfQoFwBmpPyF7Z1ts-30" value="" style="group" vertex="1" connectable="0" parent="mi6dfQoFwBmpPyF7Z1ts-42">
          <mxGeometry x="60" y="480" width="135.83999999999992" height="145" as="geometry" />
        </mxCell>
        <mxCell id="mi6dfQoFwBmpPyF7Z1ts-31" value="" style="points=[];aspect=fixed;html=1;align=center;shadow=0;dashed=0;fillColor=#FF6A00;strokeColor=none;shape=mxgraph.alibaba_cloud.ask_ack_container_service_for_kubernetes;" vertex="1" parent="mi6dfQoFwBmpPyF7Z1ts-30">
          <mxGeometry x="51.5" width="84.34" height="96.8" as="geometry" />
        </mxCell>
        <mxCell id="mi6dfQoFwBmpPyF7Z1ts-32" value="ts-websocket-fix-dma" style="html=1;shadow=0;dashed=0;shape=mxgraph.bootstrap.checkbox2;labelPosition=right;verticalLabelPosition=middle;align=left;verticalAlign=middle;gradientColor=#DEDEDE;fillColor=#EDEDED;checked=0;spacing=5;checkedFill=#0085FC;checkedStroke=#ffffff;sketch=0;fontSize=25;" vertex="1" parent="mi6dfQoFwBmpPyF7Z1ts-30">
          <mxGeometry y="120" width="25" height="25" as="geometry" />
        </mxCell>
        <mxCell id="mi6dfQoFwBmpPyF7Z1ts-38" value="" style="group" vertex="1" connectable="0" parent="mi6dfQoFwBmpPyF7Z1ts-42">
          <mxGeometry x="440" y="480" width="135.83999999999992" height="145" as="geometry" />
        </mxCell>
        <mxCell id="mi6dfQoFwBmpPyF7Z1ts-39" value="" style="points=[];aspect=fixed;html=1;align=center;shadow=0;dashed=0;fillColor=#FF6A00;strokeColor=none;shape=mxgraph.alibaba_cloud.ask_ack_container_service_for_kubernetes;" vertex="1" parent="mi6dfQoFwBmpPyF7Z1ts-38">
          <mxGeometry x="51.5" width="84.34" height="96.8" as="geometry" />
        </mxCell>
        <mxCell id="mi6dfQoFwBmpPyF7Z1ts-40" value="fix-message-api" style="html=1;shadow=0;dashed=0;shape=mxgraph.bootstrap.checkbox2;labelPosition=right;verticalLabelPosition=middle;align=left;verticalAlign=middle;gradientColor=#DEDEDE;fillColor=#EDEDED;checked=0;spacing=5;checkedFill=#0085FC;checkedStroke=#ffffff;sketch=0;fontSize=25;" vertex="1" parent="mi6dfQoFwBmpPyF7Z1ts-38">
          <mxGeometry y="120" width="25" height="25" as="geometry" />
        </mxCell>
      </root>
    </mxGraphModel>
  </diagram>
</mxfile>
